<svg xmlns="http://www.w3.org/2000/svg" width="438.5" height="438.5" viewBox="0 0 438.5 438.5"><path d="M185.4 183.6c0-16.4-11.1-16.4-11.1-16.4h-45.9v35.2h43c7.4 0 14-2.4 14-18.8zm106.2 18.8c-24.3 0-27.7 24.2-27.7 24.2h51.7s.3-24.2-24-24.2zm-117.3 24.2h-45.9v42.1H169a27.6 27.6 0 0 0 2.9 0c6.6-.1 19-2 19-20.4 0-21.9-16.6-21.7-16.6-21.7z"/><path d="M219.3 5.4c-118 0-213.9 95.9-213.9 213.9s95.9 213.9 213.9 213.9 213.9-96 213.9-213.9S337.2 5.4 219.3 5.4zm37.8 143.1h65v19.4h-65zm-32.8 101.7c0 48.1-50 46.5-50 46.5h-82V139.3h82c24.9 0 44.5 13.7 44.5 41.9s-24 29.9-24 29.9c31.7 0 29.5 39.1 29.5 39.1zm121.5-2.6h-81.6c0 29.3 27.7 27.5 27.7 27.5 26.2 0 25.3-17 25.3-17h27.7c0 45-53.9 41.9-53.9 41.9-64.6 0-60.5-60.2-60.5-60.2s0-60.5 60.5-60.5c63.7 0 54.8 68.3 54.8 68.3z"/></svg>