<svg xmlns="http://www.w3.org/2000/svg" id="Layer_1" width="288" height="288" viewBox="0 0 288 288"><style>.st0{fill:#37323e}</style><path d="M288.7 146.5c0 60.1-37.2 114-93.5 135.3-4.4 1.7-8.9 3.1-13.5 4.4-1.4 0-2.8-.5-3.9-1.4-1.3-1.3-2.1-3.1-2.1-5v-35c0-10.8-2.8-18.7-8.5-23.6 5.7-.6 11.4-1.6 17-3.1 5.5-1.5 10.7-3.7 15.6-6.5 5.2-2.8 9.7-6.5 13.5-11 4-5.2 7-11.1 8.8-17.4 2.4-8.2 3.5-16.6 3.4-25.1.3-12.7-4.5-25-13.2-34.2 4.1-11 3.6-23.2-1.3-33.9-4.6-.9-9.3-.2-13.5 1.8-5.3 2-10.4 4.4-15.3 7.3l-6.3 4c-20.9-5.8-42.9-5.8-63.8 0-1.8-1.2-4.1-2.7-7.1-4.5-4.5-2.5-9.1-4.6-13.9-6.4-4.4-2.3-9.4-3-14.2-2.2-4.9 10.7-5.3 22.8-1.3 33.8-8.6 9.3-13.3 21.6-13.1 34.3-.1 8.5 1 16.9 3.4 25 1.8 6.3 4.8 12.2 8.8 17.4 3.7 4.5 8.2 8.3 13.3 11.1 4.9 2.8 10.2 5 15.7 6.5 5.6 1.5 11.3 2.5 17 3.1-4.7 4.5-7.6 10.5-8.1 17-2.4 1.2-4.9 2-7.5 2.5-3.1.6-6.3.9-9.5.9-3.9-.1-7.7-1.4-10.9-3.6-3.8-2.7-7-6.3-9.2-10.4-2-3.5-4.7-6.4-8-8.6-2.5-1.9-5.3-3.2-8.3-4.1l-3.3-.4c-1.6-.1-3.3.1-4.8.7-1 .5-1.2 1.2-.8 1.9.3.9.8 1.7 1.4 2.4.7.7 1.4 1.4 2.2 2l1.2.8c2.9 1.5 5.4 3.6 7.2 6.3 2.1 2.6 3.8 5.4 5.3 8.4l1.6 3.9c1.4 4.1 3.9 7.6 7.4 10.2 3.2 2.6 7 4.3 11 5 3.8.7 7.7 1.1 11.6 1.2 3.1.1 6.2-.1 9.3-.6l3.8-.7v14.9c.1 5.6.2 8.5.2 8.9 0 1.9-.8 3.7-2.2 5-1.1.9-2.5 1.4-4 1.4-4.6-1.3-9.1-2.7-13.6-4.4C18 253.5-19.6 169.9 8.7 95.2 37 20.5 120.6-17.1 195.3 11.2c56.2 21.3 93.4 75.2 93.4 135.3z" class="st0"/><path d="M92.7 281.8c4.5 1.7 9 3.1 13.6 4.4-.9 0-1.8-.1-2.7-.3-3.7-1.2-7.3-2.5-10.9-4.1zm102.5 0c-3.5 1.6-7.1 2.9-10.8 4.1-.9.2-1.8.3-2.7.3 4.6-1.3 9.1-2.7 13.5-4.4z" class="st0"/></svg>