<svg xmlns="http://www.w3.org/2000/svg"><symbol id="behance-icon" viewBox="0 0 438.5 438.5"><path d="M185.4 183.6c0-16.4-11.1-16.4-11.1-16.4h-45.9v35.2h43c7.4 0 14-2.4 14-18.8zm106.2 18.8c-24.3 0-27.7 24.2-27.7 24.2h51.7s.3-24.2-24-24.2zm-117.3 24.2h-45.9v42.1H169a27.6 27.6 0 0 0 2.9 0c6.6-.1 19-2 19-20.4 0-21.9-16.6-21.7-16.6-21.7z"/><path d="M219.3 5.4c-118 0-213.9 95.9-213.9 213.9s95.9 213.9 213.9 213.9 213.9-96 213.9-213.9S337.2 5.4 219.3 5.4zm37.8 143.1h65v19.4h-65zm-32.8 101.7c0 48.1-50 46.5-50 46.5h-82V139.3h82c24.9 0 44.5 13.7 44.5 41.9s-24 29.9-24 29.9c31.7 0 29.5 39.1 29.5 39.1zm121.5-2.6h-81.6c0 29.3 27.7 27.5 27.7 27.5 26.2 0 25.3-17 25.3-17h27.7c0 45-53.9 41.9-53.9 41.9-64.6 0-60.5-60.2-60.5-60.2s0-60.5 60.5-60.5c63.7 0 54.8 68.3 54.8 68.3z"/></symbol><symbol id="github-icon" viewBox="0 0 438.5 438.5"><path d="M433.2 226.6c0 91.5-57.4 169.5-138.2 200.1-6.5 2.5-13.2 4.6-20 6.5a8.6 8.6 0 0 1-5.7-2.1 9.7 9.7 0 0 1-3.1-7.4v-51.8c0-15.9-4.2-27.6-12.7-34.9a167.8 167.8 0 0 0 25.2-4.5 100.5 100.5 0 0 0 23.1-9.6 69.3 69.3 0 0 0 19.9-16.3c5.3-6.5 9.6-15.1 13-25.8s5-23.1 5-37c0-19.9-6.4-36.7-19.4-50.7q9.1-22.3-2-50.1c-4.5-1.5-11.2-.6-19.9 2.7a140.3 140.3 0 0 0-22.6 10.8l-9.3 5.9a177.2 177.2 0 0 0-94.4 0q-3.9-2.7-10.5-6.6c-4.3-2.7-11.2-5.8-20.5-9.5s-16.4-4.8-21.1-3.3c-7.3 18.5-7.8 35.2-1.8 50.1-12.9 14-19.4 30.8-19.4 50.7 0 13.9 1.7 26.2 5 36.9s7.7 19.2 13 25.8a66.1 66.1 0 0 0 19.7 16.4 99.4 99.4 0 0 0 23.2 9.6 164.1 164.1 0 0 0 25.1 4.5c-6.5 5.8-10.5 14.3-12 25.3a53.6 53.6 0 0 1-11.1 3.7 70.9 70.9 0 0 1-14 1.2c-5.4 0-10.7-1.8-16.1-5.3s-9.8-8.6-13.6-15.4a39.2 39.2 0 0 0-11.9-12.7c-4.9-3.3-8.9-5.3-12.2-6l-4.9-.7c-3.5 0-5.8.4-7.2 1.1s-1.7 1.7-1.2 2.8a13.5 13.5 0 0 0 2.2 3.5 30 30 0 0 0 3.2 3l1.8 1.2c3.5 1.6 7.1 4.7 10.6 9.3a63.4 63.4 0 0 1 7.8 12.5l2.4 5.7a31.5 31.5 0 0 0 10.9 15.1 37.5 37.5 0 0 0 16.4 7.4 103.1 103.1 0 0 0 17.1 1.7 77.5 77.5 0 0 0 13.7-.8l5.6-1c0 6.2 0 13.5.1 21.9s.2 12.7.2 13.2a9.8 9.8 0 0 1-3.2 7.4 9.2 9.2 0 0 1-5.9 2.1c-6.8-1.9-13.5-4-20.1-6.5a214 214 0 0 1-138-200.1c0-118.1 95.7-213.9 213.9-213.9s213.9 95.8 213.9 213.9z"/><path d="M143.4 426.7c6.6 2.5 13.3 4.6 20.1 6.5a20 20 0 0 1-4-.4c-5.5-1.8-10.8-3.8-16.1-6.1zm151.6 0a170.4 170.4 0 0 1-16 6.1 19.4 19.4 0 0 1-4 .4c6.8-1.9 13.5-4 20-6.5z"/></symbol><symbol id="linkedin-icon" viewBox="0 0 438.5 438.5"><path d="M219.3 5.5C101.2 5.5 5.5 101.2 5.5 219.3S101.2 433 219.3 433 433 337.3 433 219.3 337.3 5.5 219.3 5.5zm-44.9 292.8h-37.6V185.1h37.6zm-18.8-128.6h-.3c-12.6 0-20.8-8.7-20.8-19.6s8.5-19.5 21.3-19.5 20.8 8.4 21.1 19.5-8.2 19.6-21.3 19.6zm154.5 128.6h-37.7v-60.5c0-15.3-5.4-25.6-19-25.6-10.4 0-16.6 7-19.3 13.7-1 2.4-1.3 5.8-1.3 9.2v63.2h-37.6s.5-102.5 0-113.2h37.6v16.1c5-7.7 14-18.7 33.9-18.7 24.8 0 43.4 16.2 43.4 50.9z"/></symbol></svg>