<svg xmlns="http://www.w3.org/2000/svg" width="438.5" height="438.5" viewBox="0 0 438.5 438.5"><path d="M219.3 5.5C101.2 5.5 5.5 101.2 5.5 219.3S101.2 433 219.3 433 433 337.3 433 219.3 337.3 5.5 219.3 5.5zm-44.9 292.8h-37.6V185.1h37.6zm-18.8-128.6h-.3c-12.6 0-20.8-8.7-20.8-19.6s8.5-19.5 21.3-19.5 20.8 8.4 21.1 19.5-8.2 19.6-21.3 19.6zm154.5 128.6h-37.7v-60.5c0-15.3-5.4-25.6-19-25.6-10.4 0-16.6 7-19.3 13.7-1 2.4-1.3 5.8-1.3 9.2v63.2h-37.6s.5-102.5 0-113.2h37.6v16.1c5-7.7 14-18.7 33.9-18.7 24.8 0 43.4 16.2 43.4 50.9z"/></svg>
