<svg xmlns="http://www.w3.org/2000/svg" id="Layer_1" width="288" height="288" viewBox="0 0 288 288"><style>.st0{fill:#37323e}</style><path d="M144 .9C65 .9.9 65 .9 144S65 287.1 144 287.1 287.1 223 287.1 144 223 .9 144 .9zm-30 196H88.8v-75.8H114v75.8zm-12.6-86.1h-.2c-7.2.5-13.4-4.9-13.9-12v-.1c-.1-.3-.1-.7-.1-1 .1-7.3 6.1-13.2 13.4-13.1h.9c7.2-.6 13.5 4.8 14.1 12v1c.1 7.2-5.6 13.1-12.8 13.2h-1.4zm103.4 86.1h-25.2v-40.5c0-10.2-3.6-17.1-12.7-17.1-5.8 0-11 3.6-13 9.1-.6 2-.9 4.1-.8 6.2v42.3h-25.2s.3-68.6 0-75.8H153v10.8c4.6-8.1 13.4-12.9 22.7-12.5 16.6 0 29.1 10.8 29.1 34.1v43.4z" class="st0"/></svg>