<svg xmlns="http://www.w3.org/2000/svg" width="657.3" height="282.6" viewBox="0 0 657.3 282.6"><path fill="#37323e" stroke="#37323e" stroke-linecap="round" stroke-linejoin="round" stroke-width="11.02" d="M227.4 267.4s-1.8-7.4-3.2-18l-23.8 16.9c12.9 4.7 27 1.1 27 1.1z"/><path fill="#858789" stroke="#858789" stroke-linecap="round" stroke-linejoin="round" stroke-width="11.02" d="M220.9 157.3c-3.2-20.2-9.7-39.7-22.5-51.9-30.9-29.5-58.4 14.7-58.4 14.7s25.1.5 35.6 13.8 1.9 60.3 3.8 107.3a54 54 0 0 0 1.1 9.6l42.6-30.3c.7-15.7 1.4-39.9-2.2-63.2zm22.9-29.6c-14.2 19.5-10 58.8-10 58.8l7.9-4.6s-3.1-50.9 16.8-54.7 18.7 21.6 15.7 54.6l41.6-29.7c-19.7-34-58.1-43.3-72-24.4z"/><path fill="#37323e" stroke="#37323e" stroke-linecap="round" stroke-linejoin="round" stroke-width="11.02" d="M300.8 274.5c33.9 1.4 56-6.5 50.8-60.3 1.2 16.2-.3 43.9-24.2 43.2-25.7-.7-6.9-43.7-5-80.3l-51.1 36.4c-.6 30 4.2 60 29.5 61z"/><path fill="#858789" stroke="#858789" stroke-linecap="round" stroke-linejoin="round" stroke-width="11.02" d="M373.9 8.6c8.5 7.6 6.7 51.7 3.8 101.5l45.8-32.7C422.3 4 373.9 8.6 373.9 8.6z"/><path fill="#37323e" stroke="#37323e" stroke-linecap="round" stroke-linejoin="round" stroke-width="11.02" d="M421.9 108.2l-46.6 33.3c-1.8 32.6-3.1 64.2-1.4 86.3 5.1 65.6 46.8 40.9 44.3 5.1-2.3-31.6.1-59.2 3.7-124.7zm17.2 10.5c-14.2 19.5-10 58.8-10 58.8l7.9-4.7s-3.4-53.5 16.8-54.6c10.4-.5 13.3 5.4 16.7 17.2 0 0 11.5 49-2.1 99-1.9 7.9-5.8 16-15.3 14.9-23.8-2.7-22-29.9-19-45.8-11.5 52.8 9.6 63.3 43.4 65.9 16.8 1.4 26-11.1 31.3-28.3 0 0 18.6-81.9-11.7-115.6-20.3-19-47-21.9-58-6.8z"/><path fill="none" stroke="#37323e" stroke-linecap="round" stroke-linejoin="round" stroke-width="35" d="M546.4 88.2l91.1 87.2.1.2-91.1 87.2M111 88.2l-91.1 87.2-.1.2 91.1 87.2"/></svg>